<?xml version="1.0" standalone="no"?>
<!DOCTYPE svg PUBLIC "-//W3C//DTD SVG 20010904//EN"
 "http://www.w3.org/TR/2001/REC-SVG-20010904/DTD/svg10.dtd">
<svg version="1.0" xmlns="http://www.w3.org/2000/svg"
 width="512.000000pt" height="512.000000pt" viewBox="0 0 512.000000 512.000000"
 preserveAspectRatio="xMidYMid meet">
<metadata>
Created by potrace 1.14, written by Peter Selinger 2001-2017
</metadata>
<g transform="translate(0.000000,512.000000) scale(0.100000,-0.100000)"
fill="#f2900A" stroke="none">
<path d="M0 2560 l0 -2560 2560 0 2560 0 0 2560 0 2560 -2560 0 -2560 0 0
-2560z m2590 855 c0 -8 7 -15 15 -15 10 0 15 -10 15 -30 0 -20 5 -30 15 -30
10 0 15 -10 15 -30 0 -20 5 -30 15 -30 10 0 15 -10 15 -30 0 -20 5 -30 15 -30
9 0 15 -9 15 -25 0 -16 6 -25 15 -25 10 0 15 -10 15 -30 0 -18 6 -33 15 -36 8
-4 15 -17 15 -30 0 -14 7 -27 15 -30 8 -4 15 -12 15 -20 0 -8 7 -14 15 -14 10
0 15 -10 15 -30 0 -20 5 -30 15 -30 10 0 15 -10 15 -30 0 -20 5 -30 15 -30 10
0 15 -10 15 -30 0 -20 5 -30 15 -30 10 0 15 -10 15 -30 0 -20 5 -30 15 -30 10
0 15 -10 15 -30 0 -20 5 -30 15 -30 10 0 15 -10 15 -30 0 -20 5 -30 15 -30 10
0 15 -10 15 -30 0 -20 5 -30 15 -30 10 0 15 -10 15 -30 0 -19 5 -30 14 -30 8
0 17 -13 21 -30 4 -16 11 -30 16 -30 5 0 9 -9 9 -19 0 -11 7 -26 15 -34 7 -8
17 -26 21 -41 3 -14 10 -26 15 -26 5 0 9 -7 9 -15 0 -9 7 -18 15 -21 8 -4 15
-17 15 -30 0 -14 7 -27 15 -30 8 -4 15 -17 15 -30 0 -14 7 -27 15 -30 8 -4 15
-17 15 -30 0 -15 6 -24 15 -24 10 0 15 -10 15 -30 0 -20 5 -30 15 -30 10 0 15
-10 15 -30 0 -20 5 -30 15 -30 10 0 15 -10 15 -30 0 -20 5 -30 15 -30 8 0 15
-9 15 -19 0 -11 6 -26 13 -33 8 -7 17 -26 21 -41 3 -15 10 -27 15 -27 5 0 12
-13 16 -30 4 -16 10 -30 15 -30 5 0 11 -13 15 -30 4 -16 11 -30 16 -30 5 0 9
-7 9 -15 0 -20 -46 -20 -54 0 -3 8 -17 15 -31 15 -15 0 -33 7 -41 15 -9 8 -24
15 -35 15 -10 0 -19 4 -19 10 0 5 -12 13 -27 16 -15 4 -34 13 -41 21 -7 7 -22
13 -33 13 -10 0 -19 4 -19 10 0 5 -18 13 -39 16 -22 4 -42 13 -45 20 -3 8 -16
14 -30 14 -13 0 -26 7 -30 15 -3 9 -18 15 -36 15 -20 0 -30 5 -30 15 0 10 -10
15 -30 15 -20 0 -30 5 -30 15 0 10 -10 15 -30 15 -20 0 -30 5 -30 15 0 10 -10
15 -30 15 -16 0 -30 4 -30 10 0 5 -12 13 -27 16 -15 4 -34 13 -41 21 -7 7 -29
13 -48 13 -24 0 -34 5 -34 15 0 10 -10 15 -30 15 -20 0 -30 5 -30 15 0 8 -7
15 -15 15 -8 0 -15 -7 -15 -15 0 -10 -10 -15 -30 -15 -20 0 -30 -5 -30 -15 0
-10 -10 -15 -30 -15 -20 0 -30 -5 -30 -15 0 -10 -10 -15 -30 -15 -18 0 -33 -6
-36 -15 -4 -8 -17 -15 -30 -15 -14 0 -27 -7 -30 -15 -4 -8 -18 -15 -34 -15
-16 0 -35 -6 -42 -13 -7 -8 -26 -17 -41 -21 -15 -3 -27 -11 -27 -16 0 -6 -13
-10 -30 -10 -20 0 -30 -5 -30 -15 0 -10 -10 -15 -30 -15 -20 0 -30 -5 -30 -15
0 -10 -10 -15 -30 -15 -20 0 -30 -5 -30 -15 0 -10 -10 -15 -30 -15 -18 0 -33
-6 -36 -15 -4 -8 -17 -15 -30 -15 -14 0 -27 -6 -30 -14 -3 -7 -23 -16 -45 -20
-21 -3 -39 -10 -39 -15 0 -5 -13 -12 -30 -16 -16 -4 -30 -11 -30 -16 0 -5 -13
-9 -30 -9 -32 0 -40 14 -15 24 8 3 15 17 15 31 0 14 5 25 10 25 6 0 14 8 17
18 4 9 13 23 20 30 7 7 13 22 13 33 0 10 4 19 9 19 5 0 12 12 15 26 4 15 14
33 21 41 8 8 15 23 15 34 0 10 7 19 15 19 10 0 15 10 15 30 0 20 5 30 15 30
10 0 15 10 15 30 0 20 5 30 15 30 10 0 15 10 15 30 0 20 5 30 15 30 10 0 15
10 15 30 0 20 5 30 15 30 10 0 15 10 15 30 0 20 5 30 15 30 9 0 15 9 15 24 0
13 7 26 15 30 8 3 15 16 15 30 0 13 7 26 15 30 9 3 15 18 15 36 0 20 5 30 15
30 8 0 15 7 15 15 0 8 4 15 9 15 5 0 12 14 16 30 4 17 13 30 21 30 9 0 14 11
14 30 0 20 5 30 15 30 10 0 15 10 15 30 0 20 5 30 15 30 10 0 15 10 15 30 0
20 5 30 15 30 10 0 15 10 15 30 0 20 5 30 15 30 10 0 15 10 15 30 0 20 5 30
15 30 10 0 15 10 15 30 0 20 5 30 15 30 10 0 15 10 15 30 0 20 5 30 15 30 10
0 15 10 15 30 0 20 5 30 15 30 10 0 15 10 15 30 0 20 5 30 15 30 10 0 15 10
15 30 0 20 5 30 15 30 8 0 15 9 15 20 0 11 7 20 15 20 10 0 15 10 15 30 0 20
5 30 15 30 10 0 15 10 15 30 0 20 5 30 15 30 9 0 15 9 15 25 0 16 6 25 15 25
10 0 15 10 15 30 0 20 5 30 15 30 8 0 15 -7 15 -15z"/>
</g>
</svg>
